# xmcd CD database file
#
# Track frame offsets:
#	150
#	31200
#	43617
#	58322
#	72481
#	90885
#	113939
#	151882
#	164703
#	173969
#	187326
#	199393
#	212321
#	224587
#	238375
#	253096
#	265562
#	275959
#	286788
#
# Disc length: 3982 seconds
#
# Revision: 2
# Processed by: cddbd v1.5.2PL0 Copyright (c) Steve Scherf et al.
# Submitted via: CDex 1.51
#
DISCID=2e0f8c13
DTITLE=Johann Strauss - Une nuit à Venise (extraits) - Polkas and Marches célèbres
DYEAR=1900
DGENRE=Classique
TTITLE0=Une nuit à Venise - Ouverture  [Raffi Armenian, Kitchener-Waterloo Symphony]
TTITLE1=Une nuit à Venise - Sei Mir Gerüßt Du Holdes Venitia
TTITLE2=Une nuit à Venise - Annina's Polka-Mazurka Op.415
TTITLE3=Une nuit à Venise - Was Mir Der Zufall Gab
TTITLE4=Une nuit à Venise - Quadrille Op.16
TTITLE5=Une nuit à Venise - Sie Sagten Meinem Liebesfleh'n
TTITLE6=Une nuit à Venise - Lagunen-Walzer Op.411
TTITLE7=Une nuit à Venise - Tritsch-Tratsch Polka
TTITLE8=Champagne Polka  [Carl Schuricht, Orchestre de l'opéra de Vienne]
TTITLE9=Perpetuum Mobile
TTITLE10=Pizzicato-polka  [Alfred Scholz, Vienna Opera Orchestra]
TTITLE11=Train de plaisir
TTITLE12=Sang léger
TTITLE13=Annen Polka ''La Chauve-Souris''
TTITLE14=Sous le tonnerre et les éclairs
TTITLE15=Vive la Hongrie !
TTITLE16=Marche Persane
TTITLE17=Marche Russe
TTITLE18=Marche Égyptienne
EXTD=
EXTT0=
EXTT1=
EXTT2=
EXTT3=
EXTT4=
EXTT5=
EXTT6=
EXTT7=
EXTT8=
EXTT9=
EXTT10=
EXTT11=
EXTT12=
EXTT13=
EXTT14=
EXTT15=
EXTT16=
EXTT17=
EXTT18=
PLAYORDER=
